<svg width="19" height="18" viewBox="0 0 19 18" fill="none" xmlns="http://www.w3.org/2000/svg">
<path d="M18.4501 15.3774L13.5101 10.4374L11.3901 12.5574L16.3301 17.4974C16.9201 18.0874 17.8701 18.0874 18.4501 17.4974C19.0301 16.9074 19.0301 15.9574 18.4501 15.3774ZM15.1101 7.38736C17.0401 7.38736 18.6101 5.81736 18.6101 3.88736C18.6101 3.30736 18.4501 2.76736 18.2001 2.28736L15.5001 4.98736L14.0101 3.49736L16.7101 0.79736C16.2301 0.54736 15.6901 0.38736 15.1101 0.38736C13.1801 0.38736 11.6101 1.95736 11.6101 3.88736C11.6101 4.29736 11.6901 4.68736 11.8201 5.04736L9.9701 6.89736L8.1901 5.11736C8.28281 5.02485 8.35635 4.91496 8.40653 4.79398C8.45672 4.67301 8.48255 4.54333 8.48255 4.41236C8.48255 4.28139 8.45672 4.15171 8.40653 4.03074C8.35635 3.90976 8.28281 3.79987 8.1901 3.70736L7.4801 2.99736L9.6001 0.87736C9.0376 0.315558 8.27511 0 7.4801 0C6.6851 0 5.9226 0.315558 5.3601 0.87736L2.5401 3.70736C2.4474 3.79987 2.37385 3.90976 2.32367 4.03074C2.27349 4.15171 2.24766 4.28139 2.24766 4.41236C2.24766 4.54333 2.27349 4.67301 2.32367 4.79398C2.37385 4.91496 2.4474 5.02485 2.5401 5.11736L3.2501 5.82736H0.710102C0.520102 5.82736 0.340102 5.89736 0.210102 6.03736C0.143582 6.10254 0.0907365 6.18033 0.0546596 6.26619C0.0185827 6.35204 0 6.44423 0 6.53736C0 6.63049 0.0185827 6.72268 0.0546596 6.80854C0.0907365 6.89439 0.143582 6.97218 0.210102 7.03736L2.7501 9.57736C2.81528 9.64388 2.89307 9.69673 2.97893 9.7328C3.06478 9.76888 3.15697 9.78746 3.2501 9.78746C3.34323 9.78746 3.43542 9.76888 3.52128 9.7328C3.60713 9.69673 3.68493 9.64388 3.7501 9.57736C3.8801 9.44736 3.9601 9.26736 3.9601 9.07736V6.53736L4.6601 7.23736C5.0501 7.62736 5.6801 7.62736 6.0701 7.23736L7.8501 9.01736L1.5001 15.3674C1.35981 15.5059 1.24843 15.671 1.17241 15.853C1.09639 16.0349 1.05724 16.2302 1.05724 16.4274C1.05724 16.6246 1.09639 16.8198 1.17241 17.0018C1.24843 17.1837 1.35981 17.3488 1.5001 17.4874C2.0901 18.0774 3.0401 18.0774 3.6201 17.4874L13.9401 7.17736C14.3101 7.30736 14.7001 7.38736 15.1101 7.38736Z" fill="#838383"/>
<path d="M18.4501 15.3774L13.5101 10.4374L11.3901 12.5574L16.3301 17.4974C16.9201 18.0874 17.8701 18.0874 18.4501 17.4974C19.0301 16.9074 19.0301 15.9574 18.4501 15.3774ZM15.1101 7.38736C17.0401 7.38736 18.6101 5.81736 18.6101 3.88736C18.6101 3.30736 18.4501 2.76736 18.2001 2.28736L15.5001 4.98736L14.0101 3.49736L16.7101 0.79736C16.2301 0.54736 15.6901 0.38736 15.1101 0.38736C13.1801 0.38736 11.6101 1.95736 11.6101 3.88736C11.6101 4.29736 11.6901 4.68736 11.8201 5.04736L9.9701 6.89736L8.1901 5.11736C8.28281 5.02485 8.35635 4.91496 8.40653 4.79398C8.45672 4.67301 8.48255 4.54333 8.48255 4.41236C8.48255 4.28139 8.45672 4.15171 8.40653 4.03074C8.35635 3.90976 8.28281 3.79987 8.1901 3.70736L7.4801 2.99736L9.6001 0.87736C9.0376 0.315558 8.27511 0 7.4801 0C6.6851 0 5.9226 0.315558 5.3601 0.87736L2.5401 3.70736C2.4474 3.79987 2.37385 3.90976 2.32367 4.03074C2.27349 4.15171 2.24766 4.28139 2.24766 4.41236C2.24766 4.54333 2.27349 4.67301 2.32367 4.79398C2.37385 4.91496 2.4474 5.02485 2.5401 5.11736L3.2501 5.82736H0.710102C0.520102 5.82736 0.340102 5.89736 0.210102 6.03736C0.143582 6.10254 0.0907365 6.18033 0.0546596 6.26619C0.0185827 6.35204 0 6.44423 0 6.53736C0 6.63049 0.0185827 6.72268 0.0546596 6.80854C0.0907365 6.89439 0.143582 6.97218 0.210102 7.03736L2.7501 9.57736C2.81528 9.64388 2.89307 9.69673 2.97893 9.7328C3.06478 9.76888 3.15697 9.78746 3.2501 9.78746C3.34323 9.78746 3.43542 9.76888 3.52128 9.7328C3.60713 9.69673 3.68493 9.64388 3.7501 9.57736C3.8801 9.44736 3.9601 9.26736 3.9601 9.07736V6.53736L4.6601 7.23736C5.0501 7.62736 5.6801 7.62736 6.0701 7.23736L7.8501 9.01736L1.5001 15.3674C1.35981 15.5059 1.24843 15.671 1.17241 15.853C1.09639 16.0349 1.05724 16.2302 1.05724 16.4274C1.05724 16.6246 1.09639 16.8198 1.17241 17.0018C1.24843 17.1837 1.35981 17.3488 1.5001 17.4874C2.0901 18.0774 3.0401 18.0774 3.6201 17.4874L13.9401 7.17736C14.3101 7.30736 14.7001 7.38736 15.1101 7.38736Z" fill="black" fill-opacity="0.2"/>
</svg>
